<svg width="468" height="469" xmlns="http://www.w3.org/2000/svg" xmlns:xlink="http://www.w3.org/1999/xlink" overflow="hidden"><defs><clipPath id="clip0"><rect x="156" y="46" width="468" height="469"/></clipPath></defs><g clip-path="url(#clip0)" transform="translate(-156 -46)"><path d="M156 280.5C156 151.542 260.542 47 389.5 47 518.458 47 623 151.542 623 280.5 623 409.458 518.458 514 389.5 514 260.542 514 156 409.458 156 280.5Z" fill="#222222" fill-rule="evenodd"/><path d="M0 0 140.809 281.738" stroke="#FFFFFF" stroke-width="8" stroke-miterlimit="8" fill="#FFFFFF" fill-rule="evenodd" transform="matrix(1 0 0 -1 186 383.738)"/><path d="M325 99 421.605 279.715" stroke="#FFFFFF" stroke-width="8" stroke-miterlimit="8" fill="#FFFFFF" fill-rule="evenodd"/><path d="M0 0 47.3277 1.93953" stroke="#FFFFFF" stroke-width="8" stroke-miterlimit="8" fill="#FFFFFF" fill-rule="evenodd" transform="matrix(1 0 0 -1 374 277.94)"/><path d="M0 0 96.0616 193.997" stroke="#FFFFFF" stroke-width="8" stroke-miterlimit="8" fill="#FFFFFF" fill-rule="evenodd" transform="matrix(1 0 0 -1 235 385.997)"/><path d="M184 383 238.678 383" stroke="#FFFFFF" stroke-width="8" stroke-miterlimit="8" fill="#FFFFFF" fill-rule="evenodd"/><path d="M376.221 279.359 329 189" stroke="#FFFFFF" stroke-width="8" stroke-miterlimit="8" fill="#FFFFFF" fill-rule="evenodd"/><path d="M0 84.1364 28.7702 0 72.6721 0 43.902 84.1364Z" stroke="#FFFFFF" stroke-width="9.33333" stroke-miterlimit="8" fill="#FFFFFF" fill-rule="evenodd" transform="matrix(-0.998714 0.0506969 0.0506969 0.998714 456.19 296.669)"/><path d="M486.5 248C441.489 248 405 211.511 405 166.5 405 121.489 441.489 85 486.5 85L486.5 126.769C464.557 126.769 446.769 144.557 446.769 166.5 446.769 188.443 464.557 206.231 486.5 206.231Z" stroke="#FFFFFF" stroke-width="8" stroke-miterlimit="8" fill="#FFFFFF" fill-rule="evenodd"/><path d="M0 103C-1.31133e-14 46.1147 36.4888-1.31133e-14 81.5-2.62265e-14 126.511-5.24531e-14 163 46.1147 163 103L121.231 103C121.231 69.183 103.443 41.7688 81.5 41.7688 59.5571 41.7688 41.7688 69.183 41.7688 103Z" stroke="#FFFFFF" stroke-width="8" stroke-miterlimit="8" fill="#FFFFFF" fill-rule="evenodd" transform="matrix(-1.83697e-16 -1 -1 1.83697e-16 611 375)"/><path d="M192.918 370.275 236.029 277.679 283.417 295.053 240.306 387.65Z" fill="#FFFFFF" fill-rule="evenodd"/><path d="M235.296 279.74 278.82 187.295 325.794 204.518 282.27 296.963Z" fill="#FFFFFF" fill-rule="evenodd"/><path d="M362.356 258.315 311.854 169.625 348.821 144.762 399.323 233.452Z" fill="#FFFFFF" fill-rule="evenodd"/><path d="M272 203 327.47 97 374 203Z" fill="#FFFFFF" fill-rule="evenodd"/><path d="M369.849 181.539 412.994 254.774 378.92 284.028 335.775 210.793Z" fill="#FFFFFF" fill-rule="evenodd"/><path d="M370.4 282.214 366.385 206.16 426.048 279.276Z" fill="#FFFFFF" fill-rule="evenodd"/><path d="M194.268 383.224 192.371 363.145 231.601 379.696Z" fill="#FFFFFF" fill-rule="evenodd"/></g></svg>